P2
3 3
255
62 227 68
98 185 82
155 181 249
